<svg width="368" height="298" viewBox="0 0 368 298" fill="none" xmlns="http://www.w3.org/2000/svg">
<path d="M279.057 53.9208C254.73 29.5974 221.121 14.5514 183.993 14.5514V5.34505C183.993 3.48582 182.47 1.96327 180.611 2.00067C142.57 2.86109 108.082 18.1764 82.4344 42.6682C81.0914 43.9476 81.0914 46.0986 82.4007 47.4154L88.9136 53.9358C64.5865 78.2667 49.5405 111.879 49.5405 149.004H40.3416C38.4824 149.004 36.9561 150.526 37.001 152.385C37.8576 190.427 53.1767 224.914 77.6647 250.562C78.9478 251.905 81.0989 251.905 82.4119 250.592L88.9361 244.083C113.267 268.41 146.879 283.456 183.996 283.456V292.659C183.996 294.518 185.523 296.04 187.382 295.999C225.427 295.143 259.911 279.823 285.559 255.339C286.905 254.056 286.902 251.905 285.592 250.592L279.079 244.068C303.406 219.737 318.449 186.129 318.449 149.007H327.655C329.511 149.007 331.037 147.481 330.996 145.622C330.135 107.581 314.82 73.0968 290.328 47.4416C289.049 46.0986 286.898 46.0986 285.581 47.4154L279.057 53.9208Z" fill="#45E0A8"/>
<mask id="mask0_7498_1409" style="mask-type:luminance" maskUnits="userSpaceOnUse" x="37" y="2" width="294" height="294">
<path d="M279.057 53.9208C254.73 29.5974 221.121 14.5514 183.993 14.5514V5.34505C183.993 3.48582 182.47 1.96327 180.611 2.00067C142.57 2.86109 108.082 18.1764 82.4344 42.6682C81.0914 43.9476 81.0914 46.0986 82.4007 47.4154L88.9136 53.9358C64.5865 78.2667 49.5405 111.879 49.5405 149.004H40.3416C38.4824 149.004 36.9561 150.526 37.001 152.385C37.8576 190.427 53.1767 224.914 77.6647 250.562C78.9478 251.905 81.0989 251.905 82.4119 250.592L88.9361 244.083C113.267 268.41 146.879 283.456 183.996 283.456V292.659C183.996 294.518 185.523 296.04 187.382 295.999C225.427 295.143 259.911 279.823 285.559 255.339C286.905 254.056 286.902 251.905 285.592 250.592L279.079 244.068C303.406 219.737 318.449 186.129 318.449 149.007H327.655C329.511 149.007 331.037 147.481 330.996 145.622C330.135 107.581 314.82 73.0968 290.328 47.4416C289.049 46.0986 286.898 46.0986 285.581 47.4154L279.057 53.9208Z" fill="white"/>
</mask>
<g mask="url(#mask0_7498_1409)">
<path d="M96.0176 71.9968C96.0176 71.9968 88.8425 82.2769 88.734 82.4527C88.0232 83.6011 87.7239 85.019 88.0307 86.4704L129.087 280.313L138.208 278.608L299.766 73.4221L96.0176 71.9968Z" fill="#45E0A8"/>
<mask id="mask1_7498_1409" style="mask-type:luminance" maskUnits="userSpaceOnUse" x="87" y="71" width="213" height="210">
<path d="M96.0176 71.9968C96.0176 71.9968 88.8425 82.2769 88.734 82.4527C88.0232 83.6011 87.7239 85.019 88.0307 86.4704L129.087 280.313L138.208 278.608L299.766 73.4221L96.0176 71.9968Z" fill="white"/>
</mask>
<g mask="url(#mask1_7498_1409)">
<path d="M99.2498 77.092L88.5396 92.8674L87.5071 83.7957L96.0177 71.9968L99.2498 77.092Z" fill="white"/>
<path d="M97.7049 84.843L90.1333 96.3837L90.9114 100.065L98.1164 89.2872L97.7049 84.843Z" fill="white"/>
</g>
<path d="M96.0176 71.9968C96.0176 71.9968 88.8425 82.2769 88.734 82.4527C88.0232 83.6011 87.7239 85.019 88.0307 86.4704L129.087 280.313L138.208 278.608L299.766 73.4221L96.0176 71.9968Z" stroke="black" stroke-width="1.2" stroke-linecap="round" stroke-linejoin="round"/>
<path d="M307.039 62.9888L100.495 69.4232C97.0837 69.528 94.596 72.6965 95.303 76.0372L138.208 278.611C138.208 278.611 148.877 282.958 161.921 285.094C174.962 287.227 180.652 286.516 180.652 286.516L181.363 298.135C181.363 298.135 196.3 304.775 236.848 289.599C277.396 274.422 291.622 252.369 291.622 252.369L284.036 243.357C284.036 243.357 306.089 220.594 312.729 198.305C319.369 176.017 320.555 152.068 320.555 152.068L330.996 152.303C330.996 152.303 335.511 139.498 330.996 115.549C326.48 91.5994 307.039 62.9851 307.039 62.9851V62.9888Z" fill="white"/>
<mask id="mask2_7498_1409" style="mask-type:luminance" maskUnits="userSpaceOnUse" x="95" y="62" width="239" height="238">
<path d="M307.039 62.9888L100.495 69.4232C97.0837 69.528 94.596 72.6965 95.303 76.0372L138.208 278.611C138.208 278.611 148.877 282.958 161.921 285.094C174.962 287.227 180.652 286.516 180.652 286.516L181.363 298.135C181.363 298.135 196.3 304.775 236.848 289.599C277.396 274.422 291.622 252.369 291.622 252.369L284.036 243.357C284.036 243.357 306.089 220.594 312.729 198.305C319.369 176.017 320.555 152.068 320.555 152.068L330.996 152.303C330.996 152.303 335.511 139.498 330.996 115.549C326.48 91.5994 307.039 62.9851 307.039 62.9851V62.9888Z" fill="white"/>
</mask>
<g mask="url(#mask2_7498_1409)">
<path d="M332.743 128.055C332.743 128.055 332.511 125.608 331.77 119.959C331.029 114.31 327.752 103.795 327.752 103.795L196.618 109.601C195.212 109.664 194.198 110.974 194.49 112.35L199.405 135.563L108.737 139.472L120.775 196.3L315.464 187.812L320.641 152.479L331.082 152.715C331.082 152.715 331.957 149.191 332.743 142.517C333.528 135.843 332.743 128.051 332.743 128.051V128.055Z" fill="#45E0A8" stroke="#45E0A8" stroke-width="1.2" stroke-linecap="round" stroke-linejoin="round"/>
</g>
<path d="M307.039 62.9888L100.495 69.4232C97.0837 69.528 94.596 72.6965 95.303 76.0372L138.208 278.611C138.208 278.611 148.877 282.958 161.921 285.094C174.962 287.227 180.652 286.516 180.652 286.516L181.363 298.135C181.363 298.135 196.3 304.775 236.848 289.599C277.396 274.422 291.622 252.369 291.622 252.369L284.036 243.357C284.036 243.357 306.089 220.594 312.729 198.305C319.369 176.017 320.555 152.068 320.555 152.068L330.996 152.303C330.996 152.303 335.511 139.498 330.996 115.549C326.48 91.5994 307.039 62.9851 307.039 62.9851V62.9888Z" stroke="black" stroke-width="1.2" stroke-linecap="round" stroke-linejoin="round"/>
<path d="M101.334 104.505L324.303 94.8539C319.833 84.2671 313.993 73.6429 307.039 62.9888L100.496 69.4231C100.496 69.4231 97.9667 69.2249 96.388 71.4806C94.8094 73.7327 95.2433 75.678 95.2433 75.678L101.337 104.509L101.334 104.505Z" fill="black"/>
<path d="M123.307 92.2581C125.857 89.2359 125.081 84.3859 121.572 81.4252C118.064 78.4645 113.152 78.5143 110.602 81.5365C108.052 84.5586 108.828 89.4087 112.337 92.3694C115.845 95.3301 120.757 95.2802 123.307 92.2581Z" fill="#45E0A8"/>
<path d="M145.243 91.4522C147.794 88.43 147.017 83.58 143.509 80.6193C140 77.6586 135.088 77.7084 132.538 80.7305C129.988 83.7527 130.765 88.6028 134.273 91.5634C137.782 94.5241 142.693 94.4743 145.243 91.4522Z" fill="#45E0A8"/>
<path d="M167.174 90.6914C169.724 87.6693 168.947 82.8192 165.439 79.8585C161.93 76.8978 157.019 76.9476 154.468 79.9698C151.918 82.992 152.695 87.842 156.203 90.8027C159.712 93.7634 164.623 93.7136 167.174 90.6914Z" fill="white"/>
<path d="M150.182 112.04L153.777 129.02" stroke="#45E0A8" stroke-width="1.2" stroke-linecap="round" stroke-linejoin="round"/>
<path d="M183.45 128.911L169.283 129.525C167.607 129.596 166.115 128.44 165.771 126.794L163.152 114.336C162.722 112.294 164.214 110.367 166.302 110.278L180.469 109.664C182.145 109.593 183.637 110.749 183.981 112.395L186.6 124.852C187.03 126.895 185.538 128.821 183.45 128.911Z" fill="#45E0A8" stroke="#45E0A8" stroke-width="1.2" stroke-linecap="round" stroke-linejoin="round"/>
<path d="M137.658 130.838L123.491 131.451C121.815 131.522 120.322 130.366 119.978 128.72L117.36 116.263C116.929 114.221 118.422 112.294 120.509 112.204L134.676 111.591C136.352 111.52 137.845 112.676 138.189 114.322L140.808 126.779C141.238 128.821 139.745 130.748 137.658 130.838Z" fill="#45E0A8" stroke="#45E0A8" stroke-width="1.2" stroke-linecap="round" stroke-linejoin="round"/>
<path d="M134.841 127.774L130.161 125.638L126.353 128.073L126.24 123.206L122.152 119.903L126.76 119.028L128.044 114.554L131.006 118.878L135.885 119.417L133.105 122.963L134.841 127.774Z" fill="white" stroke="white" stroke-width="1.2" stroke-linecap="round" stroke-linejoin="round"/>
<path d="M180.697 126.053L176.017 123.921L172.209 126.352L172.097 121.486L168.008 118.182L172.62 117.311L173.9 112.833L176.863 117.161L181.744 117.696L178.965 121.246L180.697 126.053Z" fill="white" stroke="white" stroke-width="1.2" stroke-linecap="round" stroke-linejoin="round"/>
<path d="M245.998 126.614C244.012 126.614 242.359 125.051 242.269 123.045C242.179 120.984 243.773 119.241 245.834 119.147L330.794 115.384C332.859 115.291 334.598 116.888 334.692 118.949C334.782 121.01 333.188 122.754 331.127 122.847L246.167 126.611C246.111 126.611 246.055 126.611 245.998 126.611V126.614Z" fill="white"/>
<path d="M195.025 177.509C188.186 177.509 181.995 172.167 181.049 165.325C180.076 158.289 185.014 152.333 192.077 152.019L332.589 145.798C339.664 145.483 329.073 171.588 322.006 171.902L195.605 177.498C195.41 177.506 195.219 177.509 195.029 177.509H195.025Z" fill="white"/>
<path d="M226.97 132.009C230.565 128.461 230.019 122.077 225.749 117.75C221.48 113.424 215.104 112.793 211.509 116.341C207.913 119.89 208.459 126.273 212.729 130.6C216.998 134.926 223.374 135.557 226.97 132.009Z" stroke="white" stroke-width="1.2" stroke-linecap="round" stroke-linejoin="round"/>
<path d="M216.947 114.037L221.522 134.279" stroke="white" stroke-width="1.2" stroke-linecap="round" stroke-linejoin="round"/>
<path d="M215.046 114.325C210.187 117.127 214.047 132.588 219.531 134.17" stroke="white" stroke-width="1.2" stroke-linecap="round" stroke-linejoin="round"/>
<path d="M223.515 133.987C228.375 131.185 224.514 115.724 219.03 114.142" stroke="white" stroke-width="1.2" stroke-linecap="round" stroke-linejoin="round"/>
<path d="M209.39 124.605L229.078 123.711" stroke="white" stroke-width="1.2" stroke-linecap="round" stroke-linejoin="round"/>
<path d="M228.319 130.19C223.849 127.89 216.202 128.342 213.019 130.867" stroke="white" stroke-width="1.2" stroke-linecap="round" stroke-linejoin="round"/>
<path d="M210.175 118.085C214.608 120.411 222.258 119.985 225.491 117.486" stroke="white" stroke-width="1.2" stroke-linecap="round" stroke-linejoin="round"/>
<path d="M161.622 170.963C160.533 170.207 159.037 170.477 158.281 171.569C155.27 175.912 148.458 177.124 143.097 174.274C140.396 172.837 138.492 170.548 137.871 167.993C137.355 165.868 137.751 163.78 139.012 161.962C141.511 158.356 146.632 156.919 151.368 158.165L147.122 159.662C145.873 160.103 145.214 161.472 145.656 162.722C146.022 163.762 147.029 164.39 148.076 164.319C148.289 164.304 148.506 164.263 148.716 164.188L159.037 160.556C159.774 160.294 160.343 159.692 160.552 158.936C160.762 158.18 160.593 157.372 160.096 156.766L152.734 147.795C151.892 146.77 150.381 146.621 149.356 147.462C148.331 148.304 148.181 149.815 149.023 150.84L150.946 153.182C144.792 152.195 138.395 154.424 135.065 159.224C133.03 162.161 132.368 165.677 133.202 169.122C134.145 173.009 136.928 176.428 140.841 178.508C143.845 180.106 147.197 180.749 150.418 180.54C155.173 180.225 159.632 178.044 162.224 174.304C162.98 173.215 162.711 171.719 161.618 170.963H161.622Z" fill="white"/>
<path d="M143.063 214.328L160.496 296.639C188.822 303.915 231.985 297.593 278.267 288.409L261.688 209.154L143.063 214.328Z" fill="#45E0A8" stroke="#45E0A8" stroke-width="1.2" stroke-linecap="round" stroke-linejoin="round"/>
<path d="M275.095 218.11L306.814 216.726" stroke="#45E0A8" stroke-width="1.2" stroke-linecap="round" stroke-linejoin="round"/>
<path d="M276.868 226.613L299.767 225.617" stroke="#45E0A8" stroke-width="1.2" stroke-linecap="round" stroke-linejoin="round"/>
<path d="M278.642 234.899L293.441 234.251" stroke="#45E0A8" stroke-width="1.2" stroke-linecap="round" stroke-linejoin="round"/>
<path d="M154.899 270.213L180.925 239.724L220.096 266.124L243.806 248.893L272.866 262.585L261.688 209.157L143.063 214.327L154.899 270.213Z" fill="black" stroke="#45E0A8" stroke-width="1.2" stroke-linecap="round" stroke-linejoin="round"/>
<path d="M253.49 236.047C256.853 232.062 255.829 225.666 251.203 221.762C246.576 217.858 240.099 217.924 236.736 221.909C233.373 225.895 234.397 232.29 239.024 236.194C243.65 240.098 250.127 240.033 253.49 236.047Z" fill="#45E0A8"/>
<path d="M207.392 161.701C206.992 161.128 206.491 160.687 205.885 160.376C205.279 160.066 204.601 159.931 203.853 159.965C203.075 160.002 202.435 160.215 201.942 160.616C201.448 161.016 201.134 161.551 200.999 162.224H200.89L200.019 156.781L196.356 156.95L198.579 170.828L202.379 170.656L201.444 164.802C201.392 164.458 201.41 164.162 201.5 163.908C201.586 163.657 201.736 163.459 201.945 163.313C202.155 163.171 202.413 163.088 202.723 163.077C203.21 163.055 203.61 163.186 203.921 163.466C204.231 163.747 204.426 164.147 204.504 164.663L205.439 170.518L209.24 170.346L208.178 163.702C208.062 162.943 207.804 162.277 207.403 161.704L207.392 161.701Z" fill="#45E0A8"/>
<path d="M216.52 167.252C216.37 167.286 216.239 167.305 216.124 167.312C215.959 167.319 215.821 167.301 215.705 167.26C215.592 167.218 215.503 167.147 215.435 167.054C215.368 166.96 215.327 166.841 215.301 166.695L214.605 162.344L216.423 162.262L215.989 159.55L214.171 159.632L213.77 157.137L209.97 157.309L210.37 159.804L209.02 159.864L209.453 162.576L210.804 162.516L211.556 167.218C211.664 167.948 211.904 168.547 212.282 169.014C212.656 169.485 213.161 169.818 213.785 170.013C214.414 170.211 215.158 170.264 216.023 170.181C216.449 170.14 216.816 170.073 217.119 169.987C217.422 169.901 217.654 169.83 217.814 169.77L216.842 167.166C216.771 167.189 216.662 167.215 216.513 167.248L216.52 167.252Z" fill="#45E0A8"/>
<path d="M224.615 166.882C224.466 166.915 224.335 166.934 224.219 166.942C224.054 166.949 223.916 166.93 223.8 166.889C223.688 166.848 223.598 166.777 223.53 166.684C223.463 166.59 223.418 166.47 223.396 166.324L222.7 161.974L224.518 161.891L224.084 159.179L222.266 159.262L221.866 156.766L218.065 156.938L218.465 159.434L217.115 159.493L217.549 162.206L218.899 162.146L219.651 166.848C219.76 167.578 219.999 168.176 220.377 168.644C220.751 169.115 221.256 169.448 221.881 169.643C222.509 169.841 223.254 169.893 224.118 169.811C224.544 169.77 224.911 169.702 225.214 169.616C225.517 169.53 225.749 169.459 225.91 169.399L224.937 166.796C224.866 166.818 224.757 166.844 224.608 166.878L224.615 166.882Z" fill="#45E0A8"/>
<path d="M236.586 160.765C236.062 159.998 235.456 159.445 234.768 159.108C234.08 158.771 233.384 158.618 232.688 158.652C232.164 158.674 231.719 158.786 231.356 158.981C230.99 159.179 230.698 159.43 230.477 159.737C230.26 160.043 230.107 160.376 230.028 160.735H229.946L229.654 158.921L225.883 159.093L228.173 173.406L231.974 173.234L231.076 167.622H231.132C231.334 167.967 231.596 168.27 231.914 168.535C232.232 168.801 232.594 169.003 233.01 169.149C233.421 169.291 233.878 169.351 234.375 169.328C235.127 169.295 235.789 169.066 236.358 168.651C236.926 168.232 237.338 167.622 237.589 166.814C237.839 166.006 237.869 165 237.678 163.799C237.476 162.542 237.114 161.532 236.594 160.762L236.586 160.765ZM233.777 165.314C233.706 165.688 233.563 165.98 233.346 166.186C233.133 166.395 232.849 166.508 232.501 166.523C232.153 166.538 231.835 166.452 231.555 166.261C231.274 166.07 231.035 165.797 230.84 165.434C230.645 165.071 230.507 164.637 230.429 164.132C230.346 163.616 230.342 163.171 230.421 162.797C230.496 162.423 230.645 162.131 230.862 161.921C231.079 161.712 231.364 161.603 231.712 161.585C232.06 161.57 232.374 161.652 232.651 161.839C232.927 162.026 233.159 162.299 233.35 162.662C233.541 163.025 233.676 163.463 233.758 163.979C233.84 164.495 233.844 164.94 233.773 165.314H233.777Z" fill="#45E0A8"/>
<path d="M241.333 162.049C241.674 162.034 241.973 161.933 242.235 161.749C242.497 161.566 242.695 161.327 242.83 161.031C242.965 160.736 243.006 160.41 242.953 160.059C242.867 159.542 242.598 159.112 242.153 158.764C241.708 158.416 241.232 158.252 240.727 158.278C240.196 158.3 239.77 158.506 239.448 158.888C239.126 159.269 239.01 159.718 239.1 160.234C239.179 160.762 239.437 161.203 239.875 161.555C240.312 161.907 240.799 162.071 241.33 162.045L241.333 162.049Z" fill="#45E0A8"/>
<path d="M241.85 165.277C241.318 165.299 240.892 165.505 240.57 165.887C240.248 166.268 240.132 166.721 240.222 167.233C240.301 167.761 240.559 168.202 240.997 168.554C241.434 168.906 241.917 169.07 242.452 169.044C242.792 169.029 243.092 168.928 243.353 168.745C243.615 168.561 243.814 168.322 243.948 168.027C244.083 167.731 244.124 167.406 244.072 167.054C243.986 166.538 243.716 166.107 243.271 165.76C242.826 165.412 242.351 165.247 241.846 165.273L241.85 165.277Z" fill="#45E0A8"/>
<path d="M246.141 170.761L249.362 170.612L251.247 153.785L248.026 153.935L246.141 170.761Z" fill="#45E0A8"/>
<path d="M254.378 170.383L257.599 170.237L259.481 153.411L256.26 153.557L254.378 170.383Z" fill="#45E0A8"/>
<path d="M273.322 163.264L273.236 163.268L270.827 157.043L267.138 157.211L266.805 163.616L266.719 163.62L264.493 157.331L260.696 157.507L265.006 167.794L269.106 167.607L269.701 161.955L269.809 161.951L272.188 167.469L276.292 167.282L277.269 156.748L273.468 156.923L273.322 163.264Z" fill="#45E0A8"/>
<path d="M290.53 162.479L290.448 162.482L288.039 156.257L284.346 156.426L284.013 162.83L283.931 162.834L281.705 156.545L277.905 156.721L282.214 167.009L286.318 166.822L286.909 161.169L287.021 161.166L289.4 166.68L293.504 166.493L294.481 155.962L290.68 156.138L290.53 162.479Z" fill="#45E0A8"/>
<path d="M307.892 155.352L307.742 161.693L307.66 161.697L305.247 155.472L301.558 155.64L301.225 162.045L301.143 162.049L298.917 155.76L295.116 155.936L299.426 166.223L303.526 166.036L304.121 160.384L304.229 160.38L306.612 165.894L310.712 165.707L311.689 155.177L307.892 155.352Z" fill="#45E0A8"/>
</g>
<path d="M279.057 53.9208C254.73 29.5974 221.121 14.5514 183.993 14.5514V5.34505C183.993 3.48582 182.47 1.96327 180.611 2.00067C142.57 2.86109 108.082 18.1764 82.4344 42.6682C81.0914 43.9476 81.0914 46.0986 82.4007 47.4154L88.9136 53.9358C64.5865 78.2667 49.5405 111.879 49.5405 149.004H40.3416C38.4824 149.004 36.9561 150.526 37.001 152.385C37.8576 190.427 53.1767 224.914 77.6647 250.562C78.9478 251.905 81.0989 251.905 82.4119 250.592L88.9361 244.083C113.267 268.41 146.879 283.456 183.996 283.456V292.659C183.996 294.518 185.523 296.04 187.382 295.999C225.427 295.143 259.911 279.823 285.559 255.339C286.905 254.056 286.902 251.905 285.592 250.592L279.079 244.068C303.406 219.737 318.449 186.129 318.449 149.007H327.655C329.511 149.007 331.037 147.481 330.996 145.622C330.135 107.581 314.82 73.0968 290.328 47.4416C289.049 46.0986 286.898 46.0986 285.581 47.4154L279.057 53.9208Z" stroke="white" stroke-width="2" stroke-linecap="round" stroke-linejoin="round"/>
</svg>
